<svg
               xmlns:dc="http://purl.org/dc/elements/1.1/"
               xmlns:cc="http://creativecommons.org/ns#"
               xmlns:rdf="http://www.w3.org/1999/02/22-rdf-syntax-ns#"
               xmlns:svg="http://www.w3.org/2000/svg"
               xmlns="http://www.w3.org/2000/svg"
               id="svg20"
               version="1.1"
               viewBox="0 0 63.999998 64.000001"
               height="64"
               width="64">
              <metadata
                 id="metadata26">
                <rdf:RDF>
                  <cc:Work
                     rdf:about="">
                    <dc:format>image/svg+xml</dc:format>
                    <dc:type
                       rdf:resource="http://purl.org/dc/dcmitype/StillImage" />
                    <dc:title></dc:title>
                  </cc:Work>
                </rdf:RDF>
              </metadata>
              <defs
                 id="defs24" />
              <g
                 style="stroke-width:1.08252466"
                 transform="matrix(0.9237665,0,0,0.9237665,4.6241797,2.4184092)"
                 id="g4524">
                <path
                   d="m 48.135,12.362001 -9.381,7.576 a 17.182,17.182 0 0 1 6.392,13.473 c 0,9.166 -6.945,16.629 -15.508,16.705 -8.563,-0.076 -15.508,-7.539 -15.508,-16.705 a 17.182,17.182 0 0 1 6.392,-13.473 l -9.38,-7.576 A 28.632,28.632 0 0 0 0,35.013001 a 28.31,28.31 0 0 0 1.335,8.612 29.623,29.623 0 0 0 28.3,20.38 v 0 a 29.622,29.622 0 0 0 28.3,-20.38 28.31,28.31 0 0 0 1.335,-8.612 28.633,28.633 0 0 0 -11.135,-22.651 z"
                   id="path14"
                   style="fill:#ffffff;stroke-width:1.08252466" />
                <circle
                   cx="29.603001"
                   cy="5.9750013"
                   r="6.533"
                   id="circle16"
                   style="fill:#ffffff; stroke-width:1.08252466" />
              </g>
            </svg>